<?xml version="1.0" standalone="no"?><!DOCTYPE svg PUBLIC "-//W3C//DTD SVG 1.1//EN" "http://www.w3.org/Graphics/SVG/1.1/DTD/svg11.dtd"><svg t="1563782778554" class="icon" viewBox="0 0 1024 1024" version="1.1" xmlns="http://www.w3.org/2000/svg" p-id="2457" xmlns:xlink="http://www.w3.org/1999/xlink" width="200" height="200"><defs><style type="text/css"></style></defs><path d="M826.368 542.976H223.232a30.72 30.72 0 0 1 0-61.44h603.136a30.72 30.72 0 0 1 0 61.44z" fill="#66CDAA" p-id="2458"></path><path d="M524.8 844.8a30.72 30.72 0 0 1-30.72-30.72V210.432a30.72 30.72 0 1 1 61.44 0v603.392A30.72 30.72 0 0 1 524.8 844.8z" fill="#66CDAA" p-id="2459"></path><path d="M524.8 1003.52a491.008 491.008 0 1 1 347.648-143.616A489.984 489.984 0 0 1 524.8 1003.52z m0-921.6a430.08 430.08 0 1 0 304.128 734.208A429.824 429.824 0 0 0 524.8 82.176z" fill="#66CDAA" p-id="2460"></path></svg>