<?xml version="1.0" standalone="no"?><!DOCTYPE svg PUBLIC "-//W3C//DTD SVG 1.1//EN" "http://www.w3.org/Graphics/SVG/1.1/DTD/svg11.dtd"><svg t="1563983443908" class="icon" viewBox="0 0 1024 1024" version="1.1" xmlns="http://www.w3.org/2000/svg" p-id="2901" xmlns:xlink="http://www.w3.org/1999/xlink" width="200" height="200"><defs><style type="text/css"></style></defs><path d="M701.374 107.608c22.19 0 43.05 10.26 57.234 28.144 8.184 10.32 20.862 32.132 13.812 62.262-6.416 27.424-27.438 48.446-54.858 54.862l-115.36 26.988 26.99-115.36c6.416-27.422 27.436-48.442 54.858-54.858a76.276 76.276 0 0 1 17.316-2.04h0.008z m-0.01-59.276a135.226 135.226 0 0 0-30.816 3.598 132.822 132.822 0 0 0-99.072 99.074l-48.742 208.332 208.334-48.742a132.826 132.826 0 0 0 99.072-99.074c20-85.49-46.224-163.194-128.776-163.188zM344.1 107.608c5.706 0 11.532 0.686 17.312 2.04 27.424 6.416 48.444 27.438 54.86 54.86l26.99 115.358-115.358-26.988c-27.422-6.416-48.442-27.438-54.86-54.86-7.05-30.132 5.626-51.942 13.81-62.26 14.186-17.89 35.052-28.15 57.246-28.15z m0-59.276c-82.552 0-148.776 77.698-128.774 163.188a132.826 132.826 0 0 0 99.072 99.074l208.334 48.742-48.742-208.332a132.82 132.82 0 0 0-99.072-99.074 135.144 135.144 0 0 0-30.818-3.598z" fill="#FF8354" p-id="2902"></path><path d="M524.09 353.532l-1.358 5.804v-0.002zM701.364 48.332a135.226 135.226 0 0 0-30.816 3.598 132.822 132.822 0 0 0-99.072 99.074l-14.026 59.948c1.2 0.116 2.388 0.278 3.57 0.454l10.456-40.4a132.822 132.822 0 0 1 99.072-99.074 135.24 135.24 0 0 1 30.816-3.598c69.128-0.004 126.796 54.488 131.98 122.41 5.844-76.902-56.18-142.418-131.98-142.412zM521.364 353.532l1.358 5.804v-0.002zM344.09 48.332a135.226 135.226 0 0 1 30.816 3.598 132.822 132.822 0 0 1 99.072 99.074l14.026 59.948c-1.2 0.116-2.388 0.278-3.57 0.454l-10.456-40.4a132.822 132.822 0 0 0-99.072-99.074 135.24 135.24 0 0 0-30.816-3.598c-69.128-0.004-126.796 54.488-131.98 122.41-5.844-76.902 56.18-142.418 131.98-142.412z" fill="#FFAC8C" p-id="2903"></path><path d="M595.662 327.294l81.108-21.734-10.232-38.184c-6.002-22.398-29.024-35.69-51.42-29.688-22.398 6.002-35.69 29.024-29.688 51.42l10.232 38.186z" fill="#8F95E6" p-id="2904"></path><path d="M719.364 788.96l81.108-21.732 10.232 38.184c6.002 22.398-7.29 45.42-29.688 51.42-22.398 6.002-45.42-7.29-51.42-29.688l-10.232-38.184z" fill="#333399" p-id="2905"></path><path d="M964.926 668.888l-63.472-88.22-45.768-170.808c-26.846-100.19-129.83-159.648-230.02-132.802-100.19 26.846-159.646 129.83-132.802 230.02l45.768 170.808-10.858 108.136 437.152-117.134z" fill="#6770E6" p-id="2906"></path><path d="M530.928 785.178l430.846-115.444c22.204-5.95 45.028 7.228 50.976 29.432 5.95 22.204-7.228 45.028-29.432 50.976l-430.846 115.444c-22.204 5.95-45.028-7.228-50.976-29.432-5.95-22.202 7.228-45.026 29.432-50.976z" fill="#4C57E6" p-id="2907"></path><path d="M1012.75 699.166a41.552 41.552 0 0 0-3.742-9.222c-5.27 9.604-14.272 17.14-25.688 20.198l-430.844 115.446c-18.912 5.066-38.232-3.768-47.234-20.21-4.98 9.074-6.632 19.992-3.742 30.778 5.95 22.204 28.772 35.38 50.978 29.432l430.844-115.446c22.2-5.95 35.378-28.772 29.428-50.976z" fill="#424BC7" p-id="2908"></path><path d="M341.504 870.112l-85.498-22.91-10.786 40.252c-6.326 23.61 7.684 47.878 31.294 54.204 23.61 6.326 47.878-7.684 54.204-31.294l10.786-40.252z" fill="#4AA7B3" p-id="2909"></path><path d="M471.902 383.456l-85.498-22.91 10.786-40.252c6.326-23.61 30.594-37.622 54.204-31.294 23.61 6.326 37.622 30.594 31.294 54.204l-10.786 40.252z" fill="#A1F1FC" p-id="2910"></path><path d="M440.274 330.502c-105.614-28.298-214.17 34.376-242.47 139.99l-48.246 180.054-66.906 92.996 460.812 123.474-11.446-113.99 48.246-180.054c28.298-105.614-34.376-214.172-139.99-242.47z" fill="#69EBFC" p-id="2911"></path><path d="M540.14 866.126L85.974 744.432c-23.406-6.272-47.464 7.618-53.736 31.024-6.272 23.406 7.618 47.464 31.024 53.736l454.166 121.694c23.406 6.272 47.464-7.618 53.736-31.024 6.272-23.406-7.618-47.466-31.024-53.736z" fill="#5ED4E3" p-id="2912"></path><path d="M517.43 910.886L63.262 789.192c-12.47-3.342-22.238-11.734-27.696-22.384a44.064 44.064 0 0 0-3.33 8.648c-6.272 23.406 7.618 47.464 31.024 53.736l454.166 121.694c23.406 6.272 47.464-7.62 53.736-31.024a43.712 43.712 0 0 0-3.328-31.352c-9.214 18.034-30.052 27.83-50.404 22.376z" fill="#56C1CF" p-id="2913"></path><path d="M755.868 482.788c-35.168-7.75-68.388-15.068-96.872-25.976-41.842-16.024-69.364-53.168-85.084-81.506-14.902-26.864-22.172-50.578-24.12-57.492a188.428 188.428 0 0 0-34.812 41.194l-0.09 0.144a190.024 190.024 0 0 0-3.906 6.558c-13.644 24.018-22.026 51.03-24.066 79.172 15.124-18.154 26.888-37.452 35.812-55.022 21.07 41.486 57.9 92.624 117.666 115.512 32.106 12.296 68.798 20.38 104.282 28.198 65.824 14.502 133.686 29.482 174.014 71.062l-17.24-23.962-16.072-59.984c-40.912-18.362-86.79-28.486-129.512-37.898z" fill="#4C57E6" p-id="2914"></path><path d="M510.976 365.71a197.588 197.588 0 0 0-5.894-4.422l-0.688-0.498a197.294 197.294 0 0 0-19.702-12.422 290.256 290.256 0 0 1-13.14 26.936c-15.72 28.338-43.242 65.482-85.084 81.506-28.484 10.91-61.704 18.228-96.872 25.976-33.474 7.376-68.89 15.182-102.336 27.048l-17.036 63.578c37.846-19.398 84.694-29.74 130.558-39.844 35.484-7.818 72.176-15.902 104.282-28.198 59.764-22.888 96.594-74.026 117.666-115.512 12.646 24.896 30.976 53.264 56.524 76.922-11.528-39.77-35.36-75.32-68.278-101.07z" fill="#5ED4E3" p-id="2915"></path><path d="M970.006 544.628c-49.934-65.664-137.17-84.884-214.138-101.842-35.168-7.75-68.388-15.068-96.872-25.976-41.842-16.024-69.364-53.168-85.084-81.506-17.66-31.832-24.6-59.244-24.668-59.516l-26.512 6.604-26.512-6.604c-0.068 0.274-7.008 27.684-24.668 59.516-15.72 28.338-43.242 65.482-85.084 81.506-28.484 10.91-61.704 18.228-96.872 25.976-76.968 16.958-164.204 36.178-214.138 101.842l43.466-7.73-2.074 39.206c38.376-50.464 112.374-66.768 183.934-82.534 35.484-7.818 72.176-15.902 104.282-28.198 59.764-22.888 96.594-74.026 117.666-115.512 21.07 41.486 57.9 92.624 117.666 115.512 32.106 12.296 68.798 20.38 104.282 28.198 71.56 15.766 145.558 32.07 183.934 82.534l-2.074-39.206 43.466 7.73z" fill="#FF8354" p-id="2916"></path><path d="M550.594 240.25h-55.726c-22.578 0-40.882 18.304-40.882 40.882v1.88c0 22.578 18.304 40.882 40.882 40.882h55.726c22.578 0 40.882-18.304 40.882-40.882v-1.88c0-22.58-18.304-40.882-40.882-40.882z" fill="#FF8354" p-id="2917"></path><path d="M550.594 240.25h-55.726c-22.578 0-40.882 18.304-40.882 40.882v1.88c0 3.118 0.38 6.142 1.042 9.06 4.126-18.212 20.38-31.822 39.84-31.822h55.726c19.46 0 35.714 13.61 39.84 31.822a40.86 40.86 0 0 0 1.042-9.06v-1.88c0-22.58-18.304-40.882-40.882-40.882z" fill="#FFAC8C" p-id="2918"></path></svg>