<?xml version="1.0" standalone="no"?><!DOCTYPE svg PUBLIC "-//W3C//DTD SVG 1.1//EN" "http://www.w3.org/Graphics/SVG/1.1/DTD/svg11.dtd"><svg t="1563791046539" class="icon" viewBox="0 0 1024 1024" version="1.1" xmlns="http://www.w3.org/2000/svg" p-id="11321" xmlns:xlink="http://www.w3.org/1999/xlink" width="200" height="200"><defs><style type="text/css"></style></defs><path d="M613.920768 682.688512l-64.562176 0L549.358592 571.051008c0-11.613184-9.728-20.580352-21.3504-20.580352-11.413504 0-20.92544 8.967168-20.92544 20.580352l0 132.66432c0 11.858944 9.51296 21.026816 20.92544 21.026816l85.911552 0c11.858944 0 20.79744-9.167872 20.79744-21.026816C634.718208 692.317184 625.779712 682.688512 613.920768 682.688512L613.920768 682.688512zM932.007936 456.737792 932.007936 456.737792c-21.356544-24.825856-48.54272-43.823104-80.420864-54.78912-6.361088-74.952704-39.146496-142.277632-89.8048-192.159744-56.042496-56.170496-133.556224-91.286528-219.344896-91.286528-62.531584 0-121.366528 18.79552-170.241024 51.22048-45.190144 29.53216-81.760256 70.491136-106.25536 118.55872-53.356544 7.614464-100.777984 33.34656-136.239104 70.923264-39.484416 42.283008-63.872 98.670592-63.872 161.302528 0 128.633856 105.03168 234.442752 233.8816 235.10528l0.899072 0 17.449984 0c9.391104 38.916096 29.748224 73.843712 57.603072 101.131264l0 0c38.92224 39.13216 92.726272 63.525888 152.559616 63.525888 59.618304 0 113.760256-24.393728 153.136128-63.525888 27.056128-27.286528 47.650816-62.215168 57.14944-101.131264l56.48896 0 0.777216-0.216064c99.101696-1.784832 178.975744-82.997248 178.975744-181.20704C974.751744 529.444864 958.633984 488.298496 932.007936 456.737792L932.007936 456.737792zM651.598848 827.210752 651.598848 827.210752c-31.316992 31.533056-75.49952 50.991104-123.373568 50.991104-48.090112 0-92.050432-19.458048-123.367424-50.991104-31.762432-31.776768-51.119104-75.399168-51.119104-123.496448 0-48.098304 19.356672-91.488256 51.119104-123.250688l1.001472-0.90624c31.768576-30.656512 74.722304-50.112512 122.365952-50.112512 47.874048 0 92.056576 19.917824 123.373568 51.018752l1.006592 0.891904c30.769152 31.547392 50.112512 74.723328 50.112512 122.358784C702.717952 751.811584 682.800128 795.433984 651.598848 827.210752L651.598848 827.210752zM794.998784 685.826048 794.998784 685.826048 743.64928 685.826048c-4.129792-52.141056-27.057152-98.669568-61.28128-133.771264l-1.006592-1.353728c-39.375872-39.145472-93.517824-63.079424-153.136128-63.079424-59.049984 0-112.62976 23.717888-151.560192 62.173184l-1.000448 0.90624c-35.231744 35.347456-58.61888 82.551808-62.640128 135.124992l-12.412928 0c-90.826752 0-164.980736-74.27584-164.980736-165.318656 0-44.526592 16.888832-83.658752 44.959744-113.651712 27.517952-29.30176 66.440192-48.543744 109.16864-51.68128 13.089792-0.21504 25.84064-7.82848 31.540224-20.796416 18.566144-43.851776 49.882112-80.52224 88.81152-106.268672 38.030336-24.609792 83.113984-39.5776 132.3264-39.5776 66.44736 0 126.503936 27.286528 170.241024 70.2464 43.174912 43.60704 70.462464 103.779328 70.462464 169.996288l0 0.4608c0 16.535552 11.858944 31.748096 29.300736 34.453504 26.294272 4.475904 49.666048 18.11968 66.461696 38.009856 16.41984 19.47136 25.819136 44.527616 25.819136 72.491008C904.722432 634.576896 855.401472 684.474368 794.998784 685.826048L794.998784 685.826048z" p-id="11322" fill="#66CDAA"></path></svg>