<?xml version="1.0" standalone="no"?><!DOCTYPE svg PUBLIC "-//W3C//DTD SVG 1.1//EN" "http://www.w3.org/Graphics/SVG/1.1/DTD/svg11.dtd"><svg t="1564206622669" class="icon" viewBox="0 0 1024 1024" version="1.1" xmlns="http://www.w3.org/2000/svg" p-id="2222" xmlns:xlink="http://www.w3.org/1999/xlink" width="200" height="200"><defs><style type="text/css"></style></defs><path d="M117.028571 1024C51.2 1024 0 972.8 0 906.971429V117.028571C0 51.2 51.2 0 117.028571 0h343.771429c14.628571 0 21.942857 14.628571 21.942857 21.942857s-7.314286 29.257143-21.942857 29.257143H117.028571c-36.571429 0-65.828571 29.257143-65.828571 65.828571v782.628572c0 36.571429 29.257143 65.828571 65.828571 65.828571h782.628572c36.571429 0 65.828571-29.257143 65.828571-65.828571V585.142857c0-14.628571 14.628571-21.942857 21.942857-21.942857 21.942857 0 36.571429 7.314286 36.571429 21.942857v321.828572c0 65.828571-51.2 117.028571-117.028571 117.028571H117.028571z" fill="#66CDAA" p-id="2223"></path><path d="M1024 175.542857c0-7.314286-7.314286-14.628571-14.628571-21.942857L804.571429 7.314286c-14.628571-7.314286-36.571429-7.314286-51.2 7.314285-7.314286 7.314286-7.314286 14.628571-7.314286 21.942858 0 7.314286 7.314286 14.628571 14.628571 21.942857l138.971429 95.085714c-270.628571 43.885714-533.942857 343.771429-585.142857 577.828571v7.314286c0 14.628571 7.314286 29.257143 21.942857 29.257143 7.314286 0 21.942857 0 29.257143-7.314286 7.314286-7.314286 14.628571-7.314286 14.628571-14.628571 51.2-219.428571 292.571429-497.371429 533.942857-533.942857L804.571429 365.714286c-7.314286 7.314286-7.314286 14.628571-7.314286 21.942857 0 7.314286 7.314286 14.628571 14.628571 21.942857 14.628571 7.314286 36.571429 7.314286 51.2-7.314286l153.6-204.8c7.314286-7.314286 7.314286-7.314286 7.314286-14.628571v-7.314286z m0 0" fill="#66CDAA" p-id="2224"></path></svg>