<?xml version="1.0" standalone="no"?><!DOCTYPE svg PUBLIC "-//W3C//DTD SVG 1.1//EN" "http://www.w3.org/Graphics/SVG/1.1/DTD/svg11.dtd"><svg t="1564152250650" class="icon" viewBox="0 0 1025 1024" version="1.1" xmlns="http://www.w3.org/2000/svg" p-id="7571" xmlns:xlink="http://www.w3.org/1999/xlink" width="200.1953125" height="200"><defs><style type="text/css"></style></defs><path d="M436.668329 525.193682a8.2 8.2 0 1 0 139.597672 0 8.2 8.2 0 1 0-139.597672 0Z" p-id="7572" fill="#66CDAA"></path><path d="M804.389027 348.994181l-51.072319 0 0-51.072319c0-9.363259-7.660848-17.024106-17.024106-17.024106-9.363259 0-17.024106 7.660848-17.024106 17.024106l0 51.072319-51.072319 0c-9.363259 0-17.024106 7.660848-17.024106 17.024106 0 9.363259 7.660848 17.024106 17.024106 17.024106l51.072319 0 0 51.072319c0 9.363259 7.660848 17.024106 17.024106 17.024106 9.363259 0 17.024106-7.660848 17.024106-17.024106l0-51.072319 51.072319 0c9.363259 0 17.024106-7.660848 17.024106-17.024106C821.413134 356.655029 813.752286 348.994181 804.389027 348.994181z" p-id="7573" fill="#66CDAA"></path><path d="M685.220283 442.626766l0-25.53616-25.53616 0c-23.833749 0-42.560266-18.726517-42.560266-42.560266 0-4.256027 0.851205-8.512053 1.702411-11.916874L473.270158 362.613466c1.702411-2.553616 2.553616-5.107232 2.553616-7.660848l0-15.321696c0-8.512053-6.809643-15.321696-15.321696-15.321696L337.077307 324.309227c-8.512053 0-15.321696 6.809643-15.321696 15.321696l0 15.321696c0 2.553616 0.851205 5.107232 2.553616 7.660848l-48.518703 0c-8.512053 0-15.321696 6.809643-15.321696 15.321696l0 287.707398c0 8.512053 6.809643 15.321696 15.321696 15.321696l463.055694 0c8.512053 0 15.321696-6.809643 15.321696-15.321696L754.167914 490.294264c-5.107232 1.702411-11.065669 3.404821-17.024106 3.404821C708.202826 493.699086 685.220283 470.716542 685.220283 442.626766zM506.467165 649.469659c-68.096426 0-123.424771-55.328346-123.424771-124.275977 0-68.947631 55.328346-124.275977 123.424771-124.275977 68.096426 0 123.424771 55.328346 123.424771 124.275977C629.891937 594.141313 574.563591 649.469659 506.467165 649.469659z" p-id="7574" fill="#66CDAA"></path><path d="M36.601829 924.408978l0-17.024106-34.048213 0 0 17.024106c0 35.750623 19.577722 68.947631 50.221114 86.822943l17.024106-29.792186C48.518703 969.52286 36.601829 947.391521 36.601829 924.408978z" p-id="7575" fill="#66CDAA"></path><path d="M205.140482 1.702411 101.293433 1.702411 101.293433 35.750623 205.140482 35.750623Z" p-id="7576" fill="#66CDAA"></path><path d="M2.553616 560.944306l34.048213 0 0 103.847049-34.048213 0 0-103.847049Z" p-id="7577" fill="#66CDAA"></path><path d="M2.553616 733.738986l34.048213 0 0 103.847049-34.048213 0 0-103.847049Z" p-id="7578" fill="#66CDAA"></path><path d="M447.733998 1.702411l103.847049 0 0 34.048213-103.847049 0 0-34.048213Z" p-id="7579" fill="#66CDAA"></path><path d="M621.379884 1.702411l103.847049 0 0 34.048213-103.847049 0 0-34.048213Z" p-id="7580" fill="#66CDAA"></path><path d="M2.553616 387.298421l34.048213 0 0 103.847049-34.048213 0 0-103.847049Z" p-id="7581" fill="#66CDAA"></path><path d="M794.174564 1.702411l103.847049 0 0 34.048213-103.847049 0 0-34.048213Z" p-id="7582" fill="#66CDAA"></path><path d="M274.939318 1.702411l103.847049 0 0 34.048213-103.847049 0 0-34.048213Z" p-id="7583" fill="#66CDAA"></path><path d="M36.601829 100.442228c0-16.172901 5.958437-31.494597 16.172901-43.411471l-25.53616-22.982544C11.065669 52.77473 2.553616 76.608479 2.553616 100.442228L2.553616 144.704904l34.048213 0L36.601829 100.442228z" p-id="7584" fill="#66CDAA"></path><path d="M2.553616 214.503741l34.048213 0 0 103.847049-34.048213 0 0-103.847049Z" p-id="7585" fill="#66CDAA"></path><path d="M989.951787 360.911056l34.048213 0 0 103.847049-34.048213 0 0-103.847049Z" p-id="7586" fill="#66CDAA"></path><path d="M989.951787 707.351621l34.048213 0 0 103.847049-34.048213 0 0-103.847049Z" p-id="7587" fill="#66CDAA"></path><path d="M989.951787 533.705736l34.048213 0 0 103.847049-34.048213 0 0-103.847049Z" p-id="7588" fill="#66CDAA"></path><path d="M973.778886 14.47049l-17.024106 29.792186c20.428928 11.916874 33.197007 33.197007 33.197007 57.030756l0 17.024106 34.048213 0 0-17.024106C1024 65.54281 1005.273483 32.345802 973.778886 14.47049z" p-id="7589" fill="#66CDAA"></path><path d="M989.951787 187.26517l34.048213 0 0 103.847049-34.048213 0 0-103.847049Z" p-id="7590" fill="#66CDAA"></path><path d="M821.413134 989.951787 821.413134 1024 925.260183 1024 925.260183 989.951787Z" p-id="7591" fill="#66CDAA"></path><path d="M989.951787 924.408978c0 16.172901-5.958437 31.494597-16.172901 43.411471l25.53616 22.982544c16.172901-17.875312 25.53616-41.709061 25.53616-66.394015l0-44.262677-34.048213 0L990.802993 924.408978z" p-id="7592" fill="#66CDAA"></path><path d="M301.326683 989.951787l103.847049 0 0 34.048213-103.847049 0 0-34.048213Z" p-id="7593" fill="#66CDAA"></path><path d="M474.972569 989.951787l103.847049 0 0 34.048213-103.847049 0 0-34.048213Z" p-id="7594" fill="#66CDAA"></path><path d="M647.767249 989.951787l103.847049 0 0 34.048213-103.847049 0 0-34.048213Z" p-id="7595" fill="#66CDAA"></path><path d="M128.532003 989.951787l103.847049 0 0 34.048213-103.847049 0 0-34.048213Z" p-id="7596" fill="#66CDAA"></path></svg>