<?xml version="1.0" standalone="no"?><!DOCTYPE svg PUBLIC "-//W3C//DTD SVG 1.1//EN" "http://www.w3.org/Graphics/SVG/1.1/DTD/svg11.dtd"><svg t="1564207848104" class="icon" viewBox="0 0 1024 1024" version="1.1" xmlns="http://www.w3.org/2000/svg" p-id="2955" xmlns:xlink="http://www.w3.org/1999/xlink" width="200" height="200"><defs><style type="text/css"></style></defs><path d="M117.028571 1024C51.2 1024 0 972.8 0 906.971429V117.028571C0 51.2 51.2 0 117.028571 0h343.771429c14.628571 0 21.942857 14.628571 21.942857 21.942857s-7.314286 29.257143-21.942857 29.257143H117.028571c-36.571429 0-65.828571 29.257143-65.828571 65.828571v782.628572c0 36.571429 29.257143 65.828571 65.828571 65.828571h782.628572c36.571429 0 65.828571-29.257143 65.828571-65.828571V585.142857c0-14.628571 14.628571-21.942857 21.942857-21.942857 21.942857 0 36.571429 7.314286 36.571429 21.942857v321.828572c0 65.828571-51.2 117.028571-117.028571 117.028571H117.028571z" fill="#ffffff" p-id="2956"></path><path d="M482.742857 753.371429h7.314286c7.314286 0 14.628571-7.314286 14.628571-7.314286l190.171429-175.542857c14.628571-14.628571 14.628571-36.571429 7.314286-51.2-7.314286 0-14.628571 0-29.257143-7.314286-7.314286 0-14.628571 7.314286-21.942857 14.628571L519.314286 643.657143c14.628571-248.685714 270.628571-512 490.057143-577.828572 7.314286 0 14.628571-7.314286 14.628571-14.628571V21.942857c-7.314286-14.628571-21.942857-21.942857-36.571429-21.942857h-7.314285c-234.057143 73.142857-504.685714 365.714286-526.628572 636.342857L343.771429 504.685714c-7.314286-7.314286-14.628571-7.314286-21.942858-7.314285-7.314286 0-14.628571 0-21.942857 7.314285-14.628571 14.628571-14.628571 36.571429 0 51.2l160.914286 190.171429c0 7.314286 7.314286 7.314286 21.942857 7.314286z m0 0" fill="#ffffff" p-id="2957"></path></svg>