<?xml version="1.0" standalone="no"?><!DOCTYPE svg PUBLIC "-//W3C//DTD SVG 1.1//EN" "http://www.w3.org/Graphics/SVG/1.1/DTD/svg11.dtd"><svg t="1563778948078" class="icon" viewBox="0 0 1024 1024" version="1.1" xmlns="http://www.w3.org/2000/svg" p-id="9183" xmlns:xlink="http://www.w3.org/1999/xlink" width="200" height="200"><defs><style type="text/css"></style></defs><path d="M288 576C270.08 576 256 590.08 256 608l0 128C256 753.92 270.08 768 288 768S320 753.92 320 736l0-128C320 590.08 305.92 576 288 576zM480 256C462.08 256 448 270.08 448 288l0 448C448 753.92 462.08 768 480 768S512 753.92 512 736l0-448C512 270.08 497.92 256 480 256zM768 128 192 128C121.6 128 64 185.6 64 256l0 576c0 70.4 57.6 128 128 128l576 0c70.4 0 128-57.6 128-128L896 256C896 185.6 838.4 128 768 128zM832 832c0 35.2-28.8 64-64 64L192 896c-35.2 0-64-28.8-64-64L128 256c0-35.2 28.8-64 64-64l576 0c35.2 0 64 28.8 64 64L832 832zM672 448C654.08 448 640 462.08 640 480l0 256c0 17.92 14.08 32 32 32 17.92 0 32-14.08 32-32l0-256C704 462.08 689.92 448 672 448z" p-id="9184" fill="#66CDAA"></path></svg>