<?xml version="1.0" standalone="no"?><!DOCTYPE svg PUBLIC "-//W3C//DTD SVG 1.1//EN" "http://www.w3.org/Graphics/SVG/1.1/DTD/svg11.dtd"><svg t="1564415911079" class="icon" viewBox="0 0 1024 1024" version="1.1" xmlns="http://www.w3.org/2000/svg" p-id="13024" xmlns:xlink="http://www.w3.org/1999/xlink" width="200" height="200"><defs><style type="text/css"></style></defs><path d="M861.636 593.426L620.764 340.137l-186.148-47.829 38.579 188.323L713.116 734.78c6.45 6.763 15.834 10.979 28.098 12.636 12.236 1.661 25.354 0.317 39.241-4.015 13.929-4.297 25.647-11.009 35.179-20l29.542-28.097c9.535-9.09 16.815-20.456 21.788-34.162 4.988-13.698 6.962-26.727 5.913-39.05-1.061-12.358-4.789-21.903-11.241-28.666zM650.202 407.527l135.017 143.016-0.241 0.918c-0.139 0.605-0.245 1.039-0.253 1.348 3.979 8.806 4.317 20.061 0.957 33.8-3.306 13.699-9.45 24.963-18.374 33.751l-4.147 3.486-131.527-139.301c-1.013-6.628-1.397-14.293-1.005-22.992 0.338-8.701 2.243-18.279 5.645-28.694 3.415-10.417 8.082-18.875 13.928-25.332z m-151.558 62.892l-11.428-68.708c13.932-4.468 25.105-10.714 33.576-18.764 8.47-8.074 15.26-18.926 20.41-32.621l68.089 14.765 23.721 24.907c-8.356 10.594-15.37 23.369-20.991 38.419-5.621 14.994-8.587 28.839-8.898 41.422-12.605 0.004-26.388 2.317-41.381 7.073-14.991 4.756-27.971 11.026-38.964 18.848l-24.134-25.341z m170.172 180.41l-129.807-137.51c6.741-5.562 15.431-9.776 26.002-12.661 10.571-2.883 20.23-4.313 28.924-4.234 8.706 0.091 16.345 0.814 22.915 2.15l131.515 139.829-3.669 3.492c-10.753 10.234-24.34 16.201-40.746 17.894-16.394 1.693-28.105-1.261-35.134-8.96z m174.542-11.44c-2.512 16.474-9.131 29.831-19.883 40.066l-22.598 21.487c-10.78 10.233-24.407 16.192-40.992 17.888-16.529 1.691-28.305-1.491-35.327-9.448l-20.642-21.683c22.576-1.848 41.061-9.615 55.524-23.389l29.485-28.056c14.422-13.773 23.275-31.848 26.537-54.291l20.191 21.669c7.667 7.409 10.215 19.323 7.705 35.757zM184.607 287.101h211.489v53.497H184.607z" p-id="13025" fill="#66CDAA"></path><path d="M993.067 773.5v-551c0-90.5-94.566-96.392-94.566-96.392h-775C32.75 132.5 30.115 222.5 30.115 222.5V771c0 95.5 93.719 97.571 93.719 97.571H898c102.5 0 95.067-95.071 95.067-95.071zM898 810.075H123.834S91.251 807.5 90.522 771V222.5s2.979-32.75 33.312-33.395H898s32 3.395 35.479 33.395V771c0.001 0 1.021 40.5-35.479 39.075z" p-id="13026" fill="#66CDAA"></path></svg>