<?xml version="1.0" standalone="no"?><!DOCTYPE svg PUBLIC "-//W3C//DTD SVG 1.1//EN" "http://www.w3.org/Graphics/SVG/1.1/DTD/svg11.dtd"><svg t="1564408619345" class="icon" viewBox="0 0 1024 1024" version="1.1" xmlns="http://www.w3.org/2000/svg" p-id="4830" xmlns:xlink="http://www.w3.org/1999/xlink" width="200" height="200"><defs><style type="text/css"></style></defs><path d="M881.987368 1024H142.012632A142.039579 142.039579 0 0 1 0 882.095158V141.877895A142.039579 142.039579 0 0 1 142.012632 0h739.974736A142.039579 142.039579 0 0 1 1024 141.877895v740.217263A142.039579 142.039579 0 0 1 881.987368 1024zM142.012632 66.074947a75.910737 75.910737 0 0 0-75.991579 75.802948v740.217263a75.937684 75.937684 0 0 0 75.991579 75.856842h739.974736a75.937684 75.937684 0 0 0 75.991579-75.856842V141.877895a75.910737 75.910737 0 0 0-75.991579-75.802948H142.012632zM534.905263 396.395789H243.065263a33.037474 33.037474 0 0 1 0-66.074947h291.84a33.037474 33.037474 0 1 1 0 66.074947z m220.16 297.283369h-512a33.037474 33.037474 0 0 1 0-66.074947h512a33.037474 33.037474 0 1 1 0 66.074947z" p-id="4831" fill="#66CDAA"></path></svg>