<?xml version="1.0" standalone="no"?><!DOCTYPE svg PUBLIC "-//W3C//DTD SVG 1.1//EN" "http://www.w3.org/Graphics/SVG/1.1/DTD/svg11.dtd"><svg t="1563948313524" class="icon" viewBox="0 0 1025 1024" version="1.1" xmlns="http://www.w3.org/2000/svg" p-id="7095" xmlns:xlink="http://www.w3.org/1999/xlink" width="200.1953125" height="200"><defs><style type="text/css"></style></defs><path d="M512.607367 1023.889572h-507.969374c-3.754556 0-4.637981-0.883425-4.637981-4.637981Q0.441724 512.055214 0.441724 4.637981c0-3.754556 0.883425-4.637981 4.637982-4.637981h1015.938747c3.754556 0 4.637981 0.883425 4.637981 4.637981V1019.362019c0 3.754556-0.883425 4.637981-4.637981 4.637981z" fill="#FEFEFE" p-id="7096"></path><path d="M948.025462 417.307883a467.331824 467.331824 0 0 1 8.171681 51.459506 474.840936 474.840936 0 0 1 1.877278 59.189475 443.479349 443.479349 0 0 1-47.925806 187.727812 449.552896 449.552896 0 0 1-184.85668 190.709371l-2.539847 1.545994a2.650275 2.650275 0 0 1-1.104281-1.545994 160.562493 160.562493 0 0 0-26.834035-52.453359 525.748302 525.748302 0 0 0-38.760271-48.036234c-1.214709-1.325137-2.871131-2.429419-2.539847-4.637981a26.613178 26.613178 0 0 1 9.828103-4.527554 336.25364 336.25364 0 0 0 101.373018-55.214062 236.316187 236.316187 0 0 0 61.177181-71.888709 206.279737 206.279737 0 0 0 20.65006-154.599375 282.143859 282.143859 0 0 0-41.520975-95.189043c-1.214709-1.877278-3.975412-3.864984 0-6.183975a110.428125 110.428125 0 0 1 23.631618-2.760703 650.09037 650.09037 0 0 1 112.526259 3.423272 10.380244 10.380244 0 0 1 6.846544 2.981559zM332.609523 923.399978a249.457134 249.457134 0 0 1-37.987274-18.331068A447.013049 447.013049 0 0 1 68.355021 576.434811a331.284374 331.284374 0 0 1-4.085841-54.441066c1.76685-1.545994 3.754556-0.772997 5.742263 0q42.95654 8.392537 86.354793 13.251375c2.760703 0 6.183975 0 7.619541 3.644128a65.263022 65.263022 0 0 1-0.883425 18.331069 190.709371 190.709371 0 0 0 23.962903 112.305403 151.065675 151.065675 0 0 0 14.466084 23.852475 247.690284 247.690284 0 0 0 62.502319 60.845896 371.148927 371.148927 0 0 0 125.888062 54.551494c3.754556 0.883425 8.061253 0 11.042813 4.196269a33.791006 33.791006 0 0 1-8.061254 11.042812 398.203818 398.203818 0 0 0-55.214062 92.317912c-1.76685 2.650275-1.987706 5.963119-5.079694 7.0674z" fill="#94AAC0" p-id="7097"></path><path d="M399.308111 80.943815a214.230562 214.230562 0 0 1 34.12229-7.840396 497.920414 497.920414 0 0 1 62.502319-6.51526c13.472231-0.662569 26.723606 0 40.085409 0 2.539847 0.993853 5.410978 0 7.950825 0.772997h5.963119c3.202416 0.552141 2.098134 2.760703 1.545993 4.527553s-2.650275 0-4.306696 0a22.085625 22.085625 0 0 1-1.545994 9.055106c0 1.214709-0.662569 2.981559-2.429419 2.539847s-1.656422-0.441712-1.656422-2.31899 1.656422-3.644128 1.325138-5.742263c-6.736116 0-6.294403 0.662569-6.846544 6.625688s0 10.380244 0 15.570365a155.261943 155.261943 0 0 0 1.545994 36.551709v1.435566c-2.981559 4.085841 0 8.83425-1.325138 13.030519a146.869406 146.869406 0 0 0-0.662568 16.674647 7.840397 7.840397 0 0 0 0.662568 3.864984 7.509112 7.509112 0 0 1 0 5.410978c-2.760703 6.515259 0.883425 13.140947 0 19.324922s0.993853 13.803516 0 20.650059a8.502966 8.502966 0 0 0 1.76685 5.521406c3.312844 5.963119 3.754556 9.275962-1.325137 14.245229s-3.5337 11.705381-3.202416 17.889356a15.018225 15.018225 0 0 1 0 7.288256 7.398684 7.398684 0 0 1-7.950825 4.527553c-16.232934 0-32.465869 0-48.698803 1.214709a366.510946 366.510946 0 0 0-62.060606 11.042813 36.220425 36.220425 0 0 1-9.607247 2.208562c-3.5337-1.545994-7.398684-2.760703-8.723822-7.0674 0.772997-59.962472 0-120.035372 0-179.997843a17.999784 17.999784 0 0 1 2.871132-10.490672z" fill="#AFCCE7" p-id="7098"></path><path d="M527.73602 262.708509c5.521406 0 7.177828-4.858837 5.742262-11.042813a18.220641 18.220641 0 0 1 3.423272-18.110212c5.190122-4.969266 4.527553-6.736116 0-13.693088a6.294403 6.294403 0 0 1-1.214709-5.85269c1.214709-3.864984-0.993853-7.729969-1.104282-11.81581 0-1.104281-0.772997-2.098134 0-3.312843a16.674647 16.674647 0 0 0 0-13.251375 7.619541 7.619541 0 0 1 0-6.51526 7.509112 7.509112 0 0 0 1.21471-6.956972c-2.318991-4.196269 0-8.723822-1.656422-13.030518s1.877278-8.613394 1.214709-13.361803-1.877278-6.404831 1.104282-10.04896c1.214709-1.435566-1.987706-6.404831-1.104282-9.938531s-2.650275-9.055106-0.993853-13.140947c2.650275-6.294403-1.325137-12.588806 1.104281-19.104065a33.128437 33.128437 0 0 0-0.883425-11.705382 6.404831 6.404831 0 0 1 6.073547-7.950825c2.318991 0 4.527553 0 3.202416 4.085841-0.662569 1.877278-2.981559 3.975412 0 7.0674 0-4.306697 3.864984-7.177828 1.545994-11.042812-0.662569-1.325137 0-2.318991 1.545993-2.760704s1.656422 2.098134 3.644128 2.650275c-0.883425-1.877278 1.877278-3.5337-0.55214-5.30055a323.333549 323.333549 0 0 1 39.754125 5.079694 437.847514 437.847514 0 0 1 74.097271 19.877063l1.76685 0.883425c1.76685 1.987706 1.214709 4.417125 1.21471 6.625687v192.034509c0 2.318991 0.662569 5.190122-2.429419 6.404831a42.625256 42.625256 0 0 1-12.478378-5.30055 362.314677 362.314677 0 0 0-109.323843-28.380028c-3.644128 0-7.288256-0.772997-11.042813-0.883425-1.104281-0.110428-3.091987 0.110428-3.864984-2.208562z" fill="#B2CCE6" p-id="7099"></path><path d="M665.771176 298.487221c1.214709-11.042812 0-22.085625 0-33.128437v-51.790791-55.214062c-0.662569-21.312628 0-42.625256 0-63.827456a355.799418 355.799418 0 0 1 52.453359 22.527337 437.51623 437.51623 0 0 1 63.937884 40.968834 72.772134 72.772134 0 0 1 14.024372 11.81581 8.83425 8.83425 0 0 1 4.08584 8.723822c0 4.306697 0.993853 8.613394 0.772997 13.140946a45.9381 45.9381 0 0 0 0 13.693088 64.379597 64.379597 0 0 1 0 20.650059c0 3.5337-1.104281 7.729969 3.091988 10.269816a2.098134 2.098134 0 0 1 0 3.644128 8.83425 8.83425 0 0 0 0 13.803515c3.312844 2.871131 3.312844 3.644128-0.662569 6.183975a5.631834 5.631834 0 0 0 0 8.061254c2.318991 2.098134 2.760703 3.975412 0 6.183975a178.783134 178.783134 0 0 0-22.085625-2.429419 49.140515 49.140515 0 0 0-45.717244 63.496171c0.993853 2.981559 3.312844 5.852691 1.877279 9.386391-2.539847 0.662569-3.975412-1.214709-5.631835-2.429419a368.719508 368.719508 0 0 0-62.833603-39.864553c-0.993853-0.883425-3.312844-1.214709-3.312843-3.864984z" fill="#B4CCE5" p-id="7100"></path><path d="M653.844938 801.376901c12.36795 14.355656 24.956756 28.380028 36.109997 44.17125a203.408606 203.408606 0 0 1 31.251159 55.214062 18.551925 18.551925 0 0 1 1.545994 7.729969 444.362774 444.362774 0 0 1-94.305619 37.435134 320.241562 320.241562 0 0 1-39.533268 8.502965c-1.76685-1.987706-1.325137-4.306697-1.325138-6.625687a214.120134 214.120134 0 0 0-11.042812-66.256875 73.765987 73.765987 0 0 0-18.551925-30.809447 57.533053 57.533053 0 0 0-14.576513-9.496818 157.139221 157.139221 0 0 0-57.09134-15.570366 7.840397 7.840397 0 0 1-5.190122-1.214709c0.883425-3.423272 3.644128-2.650275 5.963119-2.539847h41.852259c8.944678 0 17.889356-0.883425 26.834034-1.76685 4.417125 0 4.748409-0.993853 2.098135-4.637981a55.214062 55.214062 0 0 1-8.944678-18.220641 31.8033 31.8033 0 0 1 7.288256-32.35544 8.392537 8.392537 0 0 0 2.31899-6.404832 19.324922 19.324922 0 0 1 14.245229-19.43535 23.079478 23.079478 0 0 1 25.950609 4.417125c10.380244 9.828103 19.656206 20.760487 29.594737 30.919875a315.161868 315.161868 0 0 1 23.631619 24.073331 5.963119 5.963119 0 0 1 1.877278 2.871132z" fill="#E94949" p-id="7101"></path><path d="M399.308111 80.943815v184.746253a48.588375 48.588375 0 0 1-0.993853 6.846544c-2.208562 0.772997-3.864984 0-5.631835-1.325138a141.348 141.348 0 0 0-64.600453-12.147094 111.86369 111.86369 0 0 0-58.416478 17.6685c-1.656422 1.104281-3.5337 3.5337-5.963118 0.772997a18.883209 18.883209 0 0 1-0.662569-6.846543V146.758978a17.337216 17.337216 0 0 1 0-4.969266 184.30454 184.30454 0 0 1 27.165319-17.337216 439.062224 439.062224 0 0 1 88.342499-37.987274 121.470937 121.470937 0 0 1 20.760488-5.521407z" fill="#AECCE8" p-id="7102"></path><path d="M481.245779 824.345951a144.992128 144.992128 0 0 1 56.5392 12.809662 74.538984 74.538984 0 0 1 20.539631 11.815809 73.434703 73.434703 0 0 1 18.88321 30.478163 214.782702 214.782702 0 0 1 11.815809 74.428556 159.126928 159.126928 0 0 1-20.981344 3.312844 1.214709 1.214709 0 0 1-1.325137 0 88.3425 88.3425 0 0 0-19.324922-25.619325c-12.147094-11.042812-23.631619-22.085625-35.447428-33.128438a3.975412 3.975412 0 0 0-6.404831 0c-14.355656 13.582659-29.373881 26.281894-43.508682 40.08541a55.214062 55.214062 0 0 0-11.042812 15.018224c-1.104281 2.098134-2.208562 4.306697-5.190122 3.091988a389.038283 389.038283 0 0 1-74.870268-17.778928 5.742262 5.742262 0 0 1 0-5.30055 365.848377 365.848377 0 0 1 31.8033-88.3425 19.877062 19.877062 0 0 1 4.196268-6.073547 109.102987 109.102987 0 0 1 40.858406-13.140947 126.329775 126.329775 0 0 1 25.619325-2.208562c2.760703-0.883425 5.521406-1.545994 7.840397 0.552141z" fill="#FA6559" p-id="7103"></path><path d="M263.481517 141.789712c1.987706 1.76685 1.104281 4.085841 1.104282 6.073547v130.636471a5.631834 5.631834 0 0 1-2.539847 3.5337 110.428125 110.428125 0 0 0-35.337 50.68651c-1.435566 4.527553-2.539847 4.969266-6.404831 2.429418-19.766634-12.588806-37.10385-7.398684-52.45336 6.51526a11.705381 11.705381 0 0 1-3.864984 2.981559c-2.208562 0-3.091987-1.76685-3.864984-3.312844a63.164887 63.164887 0 0 0-40.306266-31.030303c-1.877278 0-5.521406 0-4.748409-3.864984a435.307667 435.307667 0 0 1 53.778497-79.839534 452.755311 452.755311 0 0 1 92.870052-83.594091 7.729969 7.729969 0 0 1 1.76685-1.214709z" fill="#ABCCE9" p-id="7104"></path><path d="M948.025462 417.307883a643.464682 643.464682 0 0 0-144.771271-2.981559 10.159387 10.159387 0 0 1-6.294403-8.502966 30.919875 30.919875 0 0 1 11.042812-7.729969c2.760703-1.435566 4.637981 0.662569 6.625688 2.098135a19.43535 19.43535 0 0 0 28.711312-6.625688 17.778928 17.778928 0 0 0-1.987706-20.539631 19.545778 19.545778 0 0 0-22.085625-5.963119 20.097919 20.097919 0 0 0-12.699235 17.226788c0 2.981559 2.098134 6.625687-0.993853 8.944678a26.50275 26.50275 0 0 1-13.251375 7.398684 6.956972 6.956972 0 0 1-4.196268-5.631834v-19.324922a5.963119 5.963119 0 0 1 5.742262-7.0674 47.594522 47.594522 0 0 0 33.128438-21.312628 46.048528 46.048528 0 0 0 5.410978-42.735684 22.085625 22.085625 0 0 1-1.76685-5.631835 6.183975 6.183975 0 0 1 1.877278-4.527553 83.59409 83.59409 0 0 1 46.821525-27.496603 6.183975 6.183975 0 0 1 5.30055 0.552141 120.477084 120.477084 0 0 1 14.1348 21.533484 433.872102 433.872102 0 0 1 39.201984 88.3425 263.371077 263.371077 0 0 1 10.048959 39.974981z" fill="#D6E2EF" p-id="7105"></path><path d="M162.881496 538.999676c-1.104281-3.423272-4.637981-2.539847-6.736116-2.760703-14.1348-1.214709-28.048744-3.312844-41.962687-5.410978-16.012078-2.429419-32.134584-4.858837-48.036234-8.613393H64.158752a408.584061 408.584061 0 0 1 2.539847-58.637335c1.325137-12.147094 3.423272-24.183759 5.30055-36.220425 1.987706-3.312844 4.527553-1.214709 6.51526 0 13.472231 5.631834 27.054891 11.042812 40.747978 16.012079 10.269816 3.864984 20.539631 7.509112 31.030303 11.042812 4.527553 1.435566 4.969266 1.104281 4.969265-3.423272v-16.45379c0-1.76685-0.662569-4.085841 2.208563-4.637982 2.098134 1.987706 1.545994 4.637981 1.545993 7.0674v48.367519a11.926237 11.926237 0 0 0 0.883425 6.294403c1.435566-1.877278 0.883425-3.754556 0.993854-5.521406a198.770624 198.770624 0 0 1 0.662568-25.398469c0-0.772997 1.104281-1.435566 1.877278-1.325137a49.4718 49.4718 0 0 1 20.429203 6.956971 10.269816 10.269816 0 0 1-1.435565 7.0674 279.493584 279.493584 0 0 0-13.803516 41.962688 176.684999 176.684999 0 0 0-3.864984 19.98749c0.220856 0.441712 1.325137 3.202416-1.877278 3.644128z" fill="#A1BAD1" p-id="7106"></path><path d="M156.918377 429.234121v23.410762c0 3.754556-0.772997 4.637981-4.417125 3.423272-22.085625-7.288256-43.177397-15.128653-64.379597-23.742047l-11.926237-4.969266c-1.435566-0.662569-2.760703-1.214709-4.085841 0a427.798555 427.798555 0 0 1 24.846328-83.262806 268.119487 268.119487 0 0 1 17.889357-37.545562c0 2.539847 2.318991 1.987706 3.754556 2.318991a63.827456 63.827456 0 0 1 43.177397 33.128437 10.048959 10.048959 0 0 0 1.987706 2.098134c0 3.091987-1.987706 2.539847-3.5337 0.993854a29.153025 29.153025 0 0 1-4.417125-6.625688c-0.772997-1.325137-0.883425-3.312844-3.423272-3.864984 0 4.748409-1.435566 9.496819 1.656422 13.803515-0.772997 1.877278-2.539847 1.987706-4.085841 2.429419a35.999569 35.999569 0 0 0-18.441497 12.147094 12.147094 12.147094 0 0 1-9.38639 4.527553 18.772781 18.772781 0 0 0-18.88321 21.091772 18.331069 18.331069 0 0 0 17.005932 17.6685 13.472231 13.472231 0 0 1 10.048959 6.183975 38.318559 38.318559 0 0 0 21.2022 14.024371c1.987706 0.883425 3.5337 0.993853 5.410978 2.760704z" fill="#CEE2F3" p-id="7107"></path><path d="M883.866722 267.567346a75.643265 75.643265 0 0 0-37.987275 15.570366 99.385312 99.385312 0 0 0-12.478378 11.042812c-1.104281 1.214709-2.539847 2.208562-2.539847 4.085841-1.987706 0-2.429419-1.545994-3.091988-2.760703a51.349078 51.349078 0 0 0-20.539631-18.88321c-1.325137-0.662569-3.312844-1.104281-3.202415-3.312843s0-4.085841-3.312844-5.410979 0-5.30055-0.772997-8.171681 1.656422-2.208562 3.5337-1.104281 1.325137 0 1.104281-1.104281 0.662569-2.318991-1.104281-2.871132c-4.858837-1.214709-4.858837-4.858837-4.196269-8.83425s-2.429419-7.398684 3.975413-7.177828c1.104281 0 0-1.877278-0.552141-2.208562-6.183975-3.091987-3.202416-8.613394-3.312844-13.140947 0-1.545994 1.545994-3.091987 0-4.858837a2.098134 2.098134 0 0 1 0-1.877279c3.091987-5.963119-1.325137-12.036666 0-17.447643a42.846112 42.846112 0 0 0 0.883425-12.699235c0-5.521406 1.104281-12.257522-3.754556-17.116359 4.196269 1.325137 6.625687 5.190122 9.717675 7.840397a440.829074 440.829074 0 0 1 75.091125 84.8088c1.214709 2.098134 2.539847 3.864984 2.539847 5.631834z" fill="#B6CDE4" p-id="7108"></path><path d="M446.240064 956.197131c1.987706 0 2.981559-0.772997 3.644128-2.429418a68.796722 68.796722 0 0 1 18.331068-23.300335q18.662353-16.785075 37.214278-33.901434c2.650275-2.429419 4.085841-2.429419 6.846544 0 13.803516 13.472231 27.827887 26.613178 41.741831 39.974981a52.674215 52.674215 0 0 1 13.030519 20.318775c-1.435566 1.214709-3.423272 0-4.858837 0.993853l-3.202416 0.993853a5.521406 5.521406 0 0 0-4.858838 0l-8.171681 0.993854a10.380244 10.380244 0 0 0-6.846543 0h-5.079694a97.72889 97.72889 0 0 1-14.907797 0h-24.515044a18.772781 18.772781 0 0 1-6.404831 0 128.096625 128.096625 0 0 1-18.110212-1.104282 7.729969 7.729969 0 0 0-5.852691 0z" fill="#F1F1F1" p-id="7109"></path><path d="M407.369364 839.253747a249.015421 249.015421 0 0 0-17.999785 38.208132 396.657824 396.657824 0 0 0-17.889356 60.845896 269.11334 269.11334 0 0 1-38.760271-15.018225 444.252346 444.252346 0 0 1 27.938315-55.214062 364.412811 364.412811 0 0 1 39.864553-54.551494 2.318991 2.318991 0 0 1 2.760703-1.435565 101.814731 101.814731 0 0 1 18.662353 3.644128c1.656422 1.656422 0 3.202416-0.55214 4.417125-5.079694 6.073547-8.944678 13.030519-14.024372 19.104065z" fill="#E94949" p-id="7110"></path><path d="M494.16587 960.062116h25.28804-25.28804v-0.662569z" fill="#EED1CC" p-id="7111"></path><path d="M519.45391 960.945541a5.963119 5.963119 0 0 1 0-0.772997h14.907797a41.631403 41.631403 0 0 1-14.907797 0.772997z" fill="#D2C2C9" p-id="7112"></path><path d="M544.079382 68.023725c-2.650275 0-5.410978 0.883425-7.950825-0.772997 2.650275 0.110428 5.410978-0.993853 7.950825 0.772997z" fill="#B2CCE6" p-id="7113"></path><path d="M539.110117 959.951688a5.742262 5.742262 0 0 1 6.846543 0z" fill="#E8CBC9" p-id="7114"></path><path d="M562.079166 957.963981c1.435566-1.545994 3.312844-0.662569 4.858838-0.993853h0.993853c-1.76685 1.877278-4.306697 0.772997-5.852691 0.993853z" fill="#E0C6C8" p-id="7115"></path><path d="M464.239848 958.957835a4.417125 4.417125 0 0 1 5.852691 0z" fill="#E7CAC8" p-id="7116"></path><path d="M494.16587 960.062116v0.993853c-1.987706 0-4.196269 0.883425-5.852691-0.993853z" fill="#BDCBDA" p-id="7117"></path><path d="M554.128341 958.957835a3.312844 3.312844 0 0 1 4.858838 0z" fill="#CFBEC3" p-id="7118"></path><path d="M797.4015 406.265071l5.852691 8.171681a345.860886 345.860886 0 0 1 27.496603 48.919659 257.628815 257.628815 0 0 1 17.005931 50.355225 15.128653 15.128653 0 0 1-3.091988 6.183975 146.979834 146.979834 0 0 0-27.938315 86.244365 181.764693 181.764693 0 0 0 8.944678 57.864338 17.226787 17.226787 0 0 1 0.993853 6.294403 192.144937 192.144937 0 0 1-29.484309 42.183543 315.161868 315.161868 0 0 1-132.51375 85.140084l-11.042812 3.864985-16.453791-16.895503c-3.091987-3.091987-6.404831-6.073547-9.607247-9.165535a25.729753 25.729753 0 0 1 8.502966-4.08584 231.899062 231.899062 0 0 0 79.949962-56.649628 153.71595 153.71595 0 0 0 39.864553-82.048097 139.139437 139.139437 0 0 0-2.650275-52.674215 53.999353 53.999353 0 0 1-1.987706-9.717675 11.815809 11.815809 0 0 1 2.098134-6.51526 240.733312 240.733312 0 0 0 31.140732-96.072468 231.899062 231.899062 0 0 0-1.104282-60.0729 95.741184 95.741184 0 0 0-5.742262-17.447644c-0.772997-2.098134-2.098134-4.306697-0.662569-6.625687s3.754556 1.877278 5.631834 2.981559a38.208131 38.208131 0 0 1 6.404832 9.055107c0 1.987706 2.208562 3.091987 3.423271 4.637981a7.729969 7.729969 0 0 1 4.969266 6.073547z" fill="#F55954" p-id="7119"></path><path d="M826.554525 670.630001a168.071606 168.071606 0 0 1-11.042812-66.256875 148.857112 148.857112 0 0 1 27.717459-84.146231c1.545994-2.208562 3.312844-4.196269 4.969265-6.294403a138.697725 138.697725 0 0 1 5.30055 31.692872 203.298178 203.298178 0 0 1 1.104282 37.214278 194.022215 194.022215 0 0 1-28.048744 87.790359z" fill="#F5F5F5" p-id="7120"></path><path d="M778.187006 383.296021a29.705166 29.705166 0 0 0 4.306697 14.797368 70.342715 70.342715 0 0 1 3.864985 18.331069 251.44484 251.44484 0 0 1-10.159388 99.385312 235.984902 235.984902 0 0 1-22.085625 50.355225 9.607247 9.607247 0 0 0-1.435565 5.190122c-2.098134 0-2.098134-1.877278-2.539847-3.091987a196.893346 196.893346 0 0 0-37.10385-65.594307 6.956972 6.956972 0 0 1-1.435566-2.650275c-0.883425-9.607247 0-19.214494 0-28.82174 0-2.318991 0.993853-6.294403-1.987706-6.294403s-1.76685 3.975412-1.877278 6.183975a180.218699 180.218699 0 0 1-0.552141 19.877062c-0.883425 2.098134-2.429419 1.545994-3.5337 0a58.085194 58.085194 0 0 1-12.36795-13.361803 179.997843 179.997843 0 0 1 0-19.766634v-7.398684c0-2.429419 0-3.423272-1.987706-3.423272s-1.76685 1.987706-1.877278 3.423272a168.955031 168.955031 0 0 1-2.318991 20.650059c-0.993853 1.987706-2.539847 1.325137-3.644128 0a45.385959 45.385959 0 0 1-12.036665-10.04896 85.802653 85.802653 0 0 1 0-14.797368 28.159172 28.159172 0 0 0 0-3.423272c0-1.325137 0-2.871131-1.987707-2.871131s-1.76685 1.656422-1.877278 2.871131a57.753909 57.753909 0 0 1-0.772997 12.257522c-0.993853 1.656422-2.539847 1.435566-3.864984 0.55214a54.330637 54.330637 0 0 1-11.042812-7.61954 5.30055 5.30055 0 0 1-0.552141-1.325138c-1.435566-5.410978-1.656422-5.521406-6.404831-2.650275-7.729969-2.650275-14.686941-6.956972-22.085625-10.159387a276.070312 276.070312 0 0 0-82.048097-22.085625 263.260649 263.260649 0 0 0-36.220425-1.877278 283.137712 283.137712 0 0 0-131.078184 35.88914 250.009274 250.009274 0 0 0-59.299903 45.165103 187.727812 187.727812 0 0 0-50.355225 88.3425 141.568856 141.568856 0 0 0 20.318775 113.961825l5.410979 8.171681c0.993853 1.435566 2.318991 2.981559 0.55214 4.858837a48.588375 48.588375 0 0 1-20.760487 0 391.246846 391.246846 0 0 1-53.226356-7.729968 64.821309 64.821309 0 0 1-13.803516-4.196269 109.655128 109.655128 0 0 1-14.1348-23.079478 28.159172 28.159172 0 0 1 2.981559-11.926238 165.642187 165.642187 0 0 0 7.619541-67.361156 139.912434 139.912434 0 0 0-25.508897-70.342715 18.662353 18.662353 0 0 1-3.644128-6.956972 265.027499 265.027499 0 0 1 14.1348-42.846112c0.662569-1.656422 1.214709-3.423272 1.877278-5.079694a29.594737 29.594737 0 0 1 3.644128-10.159388 323.996118 323.996118 0 0 1 34.011863-53.336784 370.817643 370.817643 0 0 1 33.128437-37.435134 403.504368 403.504368 0 0 1 33.128438-28.821741 367.836083 367.836083 0 0 1 111.532405-58.85819c1.987706-0.662569 3.975412-1.877278 6.183975-0.772997 14.1348-3.754556 28.159172-7.398684 42.625257-9.828103a368.167368 368.167368 0 0 1 75.422409-4.748409h4.527553l24.073331 2.760703a358.00798 358.00798 0 0 1 100.047881 27.275747l13.582659 5.85269c14.355656 7.840397 28.932169 15.349509 42.625256 24.515044a621.710342 621.710342 0 0 1 29.373882 21.312628 19.104066 19.104066 0 0 1 8.502965 5.742262c5.963119 5.521406 12.36795 11.042812 17.889356 16.564219 3.975412 4.085841 8.171681 8.061253 12.036666 12.257522 1.325137 0.993853 3.423272 2.098134 2.208562 4.196269z" fill="#FA665A" p-id="7121"></path><path d="M200.647914 693.930335a43.287825 43.287825 0 0 1 15.570366 3.202416 450.325892 450.325892 0 0 0 45.496387 6.625687 190.709371 190.709371 0 0 0 27.165319 1.877279c2.208562 0 3.202416 1.545994 4.306697 2.981559a238.856034 238.856034 0 0 0 103.912865 70.121859 325.321255 325.321255 0 0 0 147.642403 16.895503c1.76685 0 3.644128-0.772997 5.30055 0.552141a64.931737 64.931737 0 0 0 11.042812 20.870915c3.312844 4.196269-1.545994 3.754556-3.091987 3.975413-7.398684 0.772997-14.797369 0.993853-22.085625 1.435565-17.005931 0.993853-34.011862 0.993853-51.017794 0a3.975412 3.975412 0 0 0-3.5337 1.325138h-8.061253v-1.325138a192.697078 192.697078 0 0 1-35.668284-2.760703 106.783997 106.783997 0 0 1-11.042813-1.435565c-1.76685 0-3.644128 0-4.527553-2.539847a189.273806 189.273806 0 0 0-22.085625-2.981559 154.599375 154.599375 0 0 0-24.073331-6.294404 354.363852 354.363852 0 0 1-127.76534-62.612746 222.070959 222.070959 0 0 1-47.484094-49.913513z" fill="#F55954" p-id="7122"></path><path d="M167.96119 513.711636a135.053596 135.053596 0 0 1 28.600884 63.054459 169.286315 169.286315 0 0 1-9.055106 91.765772 11.042812 11.042812 0 0 1-0.993854 1.76685 120.256228 120.256228 0 0 1-13.251374-27.71746 185.740106 185.740106 0 0 1-12.809663-66.919443c0-12.36795 1.656422-24.7359 2.539847-37.10385 1.877278-7.729969 2.208562-16.343362 4.969266-24.846328z" fill="#F5F5F5" p-id="7123"></path><path d="M405.271229 277.395449a391.688558 391.688558 0 0 0-65.152593 26.50275 362.535533 362.535533 0 0 0-49.030087 31.140731c-0.993853 0.772997-2.208562 1.435566-3.312844 2.098135a192.255365 192.255365 0 0 0-21.091772-2.760704 48.477947 48.477947 0 0 0-46.600669 43.508682 57.533053 57.533053 0 0 0 1.21471 20.429203c0 1.545994 1.104281 3.202416 0 4.858837a377.774614 377.774614 0 0 0-37.876847 63.054459c-6.625687-3.644128-14.245228-4.196269-20.981344-7.177828-1.76685-1.545994-1.325137-3.644128-1.435565-5.631834v-17.999784c0-6.073547 0-6.956972 6.736115-8.28211a37.876847 37.876847 0 0 0 27.827888-20.539631 39.091556 39.091556 0 0 0-24.515044-55.214062c-2.429419-0.662569-4.858837-1.104281-7.288256-1.545994a10.269816 10.269816 0 0 0-6.625688 0 3.975412 3.975412 0 0 1-3.202415-1.76685c-0.772997 0-1.76685 0-2.318991-0.552141a40.858406 40.858406 0 0 1 0-14.355656c2.318991-1.877278 3.423272 0 4.085841 1.76685a62.060606 62.060606 0 0 0 5.079693 9.055106c1.104281 1.76685 1.987706 2.208562 3.091988 0a46.269384 46.269384 0 0 1 33.128437-17.778928 36.330853 36.330853 0 0 1 23.742047 7.509113c3.091987 2.318991 3.864984 1.325137 4.858838-1.76685a108.109134 108.109134 0 0 1 38.981128-53.888925 112.967972 112.967972 0 0 1 56.760056-20.097919 142.452281 142.452281 0 0 1 77.299687 14.1348c1.76685 2.429419 4.858837 2.871131 6.625687 5.30055z" fill="#D0E2F2" p-id="7124"></path><path d="M413.884623 216.659981a9.165534 9.165534 0 0 1 9.386391 8.944678 8.944678 8.944678 0 0 1-9.165535 9.055106 9.386391 9.386391 0 0 1-9.496818-8.613394 9.165534 9.165534 0 0 1 9.275962-9.38639zM470.755107 234.659765a8.723822 8.723822 0 0 1-8.723822-9.386391 8.944678 8.944678 0 0 1 9.496819-8.613393 9.165534 9.165534 0 0 1 8.502966 9.165534 8.944678 8.944678 0 0 1-9.275963 8.83425zM519.45391 225.494231a8.83425 8.83425 0 0 1 9.275963-8.83425 9.165534 9.165534 0 0 1 8.723822 8.944678 9.055106 9.055106 0 0 1-9.165535 9.055106 8.723822 8.723822 0 0 1-8.83425-9.165534zM640.924847 234.659765a8.999892 8.999892 0 0 1 0-17.999784 8.999892 8.999892 0 1 1 0 17.999784zM575.772254 225.273374a8.944678 8.944678 0 0 1 9.938531-8.613393 9.010935 9.010935 0 0 1-0.772997 17.999784 8.723822 8.723822 0 0 1-9.165534-9.386391z" fill="#2C1A1A" p-id="7125"></path><path d="M763.500066 367.394371l-25.729753-23.079478c-0.662569-5.410978-3.423272-10.159387-4.417125-15.570366a50.686509 50.686509 0 0 1 40.085409-57.201768 66.256875 66.256875 0 0 1 31.361587 2.098134c3.864984 2.871131 8.282109 4.527553 12.147094 7.398684a61.398037 61.398037 0 0 1 14.686941 17.558072 50.355225 50.355225 0 0 1-38.097703 71.557425c-3.644128 0.662569-4.196269 1.987706-4.085841 5.079694v20.429203a36.772566 36.772566 0 0 1-6.846544-8.28211 15.791222 15.791222 0 0 1-1.325137-8.613393c0-6.183975 0-6.183975-5.963119-7.288257a32.024156 32.024156 0 0 1-11.815809-4.08584z" fill="#94AAC0" p-id="7126"></path><path d="M549.932073 796.297207a326.094252 326.094252 0 0 1-143.556562-13.030519 245.702577 245.702577 0 0 1-106.452713-65.483878c-3.754556-3.975412-7.177828-8.171681-11.042812-12.36795a211.911571 211.911571 0 0 1-20.539631-35.116143 143.556562 143.556562 0 0 1 0-115.618247 224.279521 224.279521 0 0 1 97.839318-107.225709 269.775909 269.775909 0 0 1 91.544916-33.128437 281.370862 281.370862 0 0 1 130.415615 7.398684 273.19918 273.19918 0 0 1 54.551493 22.858622c2.318991 2.318991 1.656422 5.30055 1.656422 7.950825v87.679931a37.324706 37.324706 0 0 0 0 5.963119c0 1.104281 0 2.539847 1.76685 2.539846s1.435566-1.545994 1.656422-2.650275a38.760272 38.760272 0 0 0 0-5.963118v-83.152378c0-2.760703-0.662569-5.742262 1.656422-8.061253l13.693088 8.171681c2.429419 2.208562 1.76685 5.190122 1.76685 7.950825v80.722959c0 2.429419-0.993853 6.956972 1.656421 6.846544s1.987706-4.527553 1.987707-7.0674v-74.759841c0-2.760703-0.662569-5.742262 1.656421-8.061253l13.693088 10.159388c2.318991 2.098134 1.76685 4.858837 1.76685 7.509112v61.729322c0 2.318991-0.883425 6.515259 1.656422 6.515259s2.098134-4.196269 2.098134-6.515259v-55.214062c0-2.539847 0-5.410978 1.656422-7.509113l14.466084 12.257522c2.208562 1.987706 1.656422 4.527553 1.656422 6.956972v31.8033c0 1.987706-0.883425 5.30055 1.987706 5.30055s1.76685-3.423272 1.877279-5.410978v-23.410763a8.282109 8.282109 0 0 1 1.545993-6.515259 181.433409 181.433409 0 0 1 33.128438 51.680362c2.650275 6.073547 4.637981 12.36795 6.956972 18.441497a171.715734 171.715734 0 0 1 5.963118 44.17125 148.084115 148.084115 0 0 1-31.472015 88.3425 227.702793 227.702793 0 0 1-95.851612 71.667853 5.521406 5.521406 0 0 1-3.423272 0c-10.159387-11.042812-19.877062-22.085625-30.478163-32.024157a22.085625 22.085625 0 0 0-24.625471-3.202415 17.778928 17.778928 0 0 0-12.699235 18.110212 7.288256 7.288256 0 0 1-1.76685 6.073547 30.478162 30.478162 0 0 0-8.392537 32.686725z" fill="#F9E7DA" p-id="7127"></path><path d="M357.345423 234.659765a8.999892 8.999892 0 1 1 0-17.999784 9.165534 9.165534 0 0 1 8.83425 8.83425 8.944678 8.944678 0 0 1-8.83425 9.165534z" fill="#2C1A1A" p-id="7128"></path><path d="M422.277161 816.395126a125.44635 125.44635 0 0 0 24.183759 3.754556 172.709587 172.709587 0 0 0 31.030303 2.098134c-1.435566 1.76685-3.5337 0-4.306697 2.098135a150.403106 150.403106 0 0 0-66.256875 15.018225 143.556562 143.556562 0 0 1 15.34951-22.96905z" fill="#F14E4E" p-id="7129"></path><path d="M797.4015 406.265071l-4.637981-5.963119 5.631834-3.202416c4.969266-2.760703 8.613394-5.30055 7.509113-12.809662a19.214494 19.214494 0 0 1 17.005931-19.545778 20.981344 20.981344 0 0 1 22.085625 11.042812 19.877062 19.877062 0 0 1-6.073547 24.956756 20.318775 20.318775 0 0 1-24.956756 0 6.073547 6.073547 0 0 0-8.944678 0zM163.764921 348.069449a40.63755 40.63755 0 0 1 37.876847 35.557856 41.079262 41.079262 0 0 1-26.613178 43.287825l-3.864985 1.104281c-8.282109 1.76685-8.392537 1.76685-8.282109 9.938531s0 13.913944 0 20.981344v30.257306c0 1.877278 0.993853 4.748409-2.650275 4.637981s-2.318991-2.760703-2.318991-4.527553v-55.214062c0-1.76685 0.662569-3.644128-0.993853-5.190122a40.63755 40.63755 0 0 1-29.484309-17.889356 5.742262 5.742262 0 0 0-5.190122-2.871131 20.870916 20.870916 0 1 1 1.104281-41.631403 7.288256 7.288256 0 0 0 6.51526-3.312844 44.17125 44.17125 0 0 1 24.073331-15.128653h3.975412a11.042812 11.042812 0 0 1 5.852691 0z" fill="#94AAC0" p-id="7130"></path><path d="M808.554741 212.132427c-0.883425 0-1.76685 0-1.545994-1.214709s1.214709-0.662569 1.987706-0.662569 1.325137 0 1.325138 0.883425-1.104281 0.883425-1.76685 0.993853zM814.849144 214.893131c0 0.883425 0 1.325137-1.104281 1.435565s-0.993853-0.662569-0.883425-0.662569a4.085841 4.085841 0 0 1 1.104281-1.325137s0.552141 0.331284 0.883425 0.552141zM805.683609 188.059096s0.993853 0 1.104282 0.883425a0.883425 0.883425 0 0 1-0.883425 1.21471s-0.883425 0-0.883425-0.883425 0.441712-0.662569 0.662568-1.21471z" fill="#B4CCE5" p-id="7131"></path><path d="M763.500066 367.394371c5.631834 0 11.042812 3.091987 16.343362 3.091987 2.429419 0 2.650275 2.098134 2.539847 3.975413v12.809662l-4.196269-3.975412z" fill="#D4E1EF" p-id="7132"></path><path d="M221.297974 403.283511a52.232503 52.232503 0 0 1 6.846543-50.796937 50.355225 50.355225 0 0 1 59.410332-15.459938 405.050361 405.050361 0 0 0-46.600669 43.066969c-6.515259 7.840397-12.699234 15.570366-19.656206 23.189906z" fill="#94AAC0" p-id="7133"></path><path d="M670.740441 462.031274v88.342499c0 1.987706 0.883425 4.527553-2.539847 4.858838s-4.306697-0.772997-4.306697-4.196269v-51.349078-43.287825-13.361803c0-2.429419-0.552141-4.969266 3.5337-4.858837s3.312844 2.760703 3.312844 5.079693v18.772782z" fill="#2E1B1A" p-id="7134"></path><path d="M649.869526 448.227758v96.735037c0 2.429419 1.214709 5.631834-3.312844 5.742263s-3.423272-2.981559-3.423272-5.521407v-101.041734c0-3.312844 2.318991-2.760703 4.417125-2.760703s2.650275 1.325137 2.650275 3.202416-0.441712 2.871131-0.331284 3.644128z" fill="#2E1B1B" p-id="7135"></path><path d="M691.721785 479.037205v66.256875c0 1.76685 0.993853 4.306697-1.877278 4.969265s-5.079694 0-4.969266-4.417125v-70.342715-3.975413-23.410762c0-2.429419 0-4.085841 3.423272-4.085841s3.5337 1.435566 3.5337 3.975413c-0.331284 10.490672-0.110428 20.981344-0.110428 31.030303zM712.703128 500.791545v33.128438c0 2.539847 0 4.969266-3.644128 4.858837s-3.202416-2.429419-3.202415-4.748409v-42.183544-24.846328c0-2.539847 0-5.079694 3.644128-4.969265s3.202416 2.429419 3.312844 4.748409q-0.220856 17.116359-0.110429 34.011862z" fill="#2E1A1A" p-id="7136"></path><path d="M163.764921 348.069449h-5.852691a4.748409 4.748409 0 0 1 5.852691 0z" fill="#CEE2F3" p-id="7137"></path><path d="M621.820782 497.809986v-40.306266c0-2.429419 0-4.527553 3.423272-4.527553s3.423272 2.208562 3.423272 4.637982v80.170818c0 2.318991 0 4.748409-3.312844 4.748409s-3.5337-2.429419-3.5337-4.969265v-39.754125z" fill="#2E1B1B" p-id="7138"></path><path d="M319.910289 693.599051a24.073331 24.073331 0 0 1-12.36795-3.202416 7.619541 7.619541 0 0 1 0-14.245228 23.410762 23.410762 0 0 1 24.846328 0 7.619541 7.619541 0 0 1-0.662569 14.245228 23.962903 23.962903 0 0 1-11.815809 3.202416zM694.040775 693.599051a24.073331 24.073331 0 0 1-11.042812-3.754556 7.619541 7.619541 0 0 1 0-13.140947 23.852475 23.852475 0 0 1 26.171465 0 7.288256 7.288256 0 0 1 0 12.809662 25.729753 25.729753 0 0 1-15.128653 4.085841z" fill="#F090AF" p-id="7139"></path><path d="M540.876967 681.010245a7.398684 7.398684 0 0 1-5.521407 8.502965c-3.312844 0.883425-3.644128 2.539847-3.423272 5.521407a27.607031 27.607031 0 0 1 0 11.042812 14.907797 14.907797 0 0 1-14.466084 11.042813h-33.128437c-2.871131 0-3.864984-0.662569-3.091988-3.754557a29.042597 29.042597 0 0 0 1.104281-14.245228c-1.76685-7.509112-3.423272-8.944678-11.042812-9.055106-1.325137 0-2.650275 0-4.085841-0.662569 1.435566-2.098134 3.5337-1.214709 5.30055-1.214709h53.778497c5.742262 0.441712 11.815809 0.552141 14.576513-7.177828z" fill="#F2797A" p-id="7140"></path><path d="M598.630876 627.673461c28.932169 0.772997 57.864337 0.772997 86.796506 0a414.105467 414.105467 0 0 1-86.796506 0zM325.321267 627.563032q43.287825 1.214709 86.686078 0a416.866171 416.866171 0 0 1-86.686078 0z" fill="#352222" p-id="7141"></path><path d="M553.576201 682.666667c-0.662569-6.846544-5.742262-10.269816-12.147094-13.913944 8.83425 0.441712 14.576512 7.619541 12.147094 13.913944z" fill="#F38080" p-id="7142"></path><path d="M505.098254 691.611345h20.429203c3.091987 0 4.306697 1.104281 4.527553 4.306697 1.104281 14.245228-6.073547 20.429203-18.331068 19.766634h-25.398469c-2.760703 0-3.975412 0-3.202416-3.5337a26.613178 26.613178 0 0 0-0.883425-17.999784c-1.325137-2.871131 0.662569-2.539847 2.318991-2.539847z" fill="#F3A9AA" p-id="7143"></path></svg>