<?xml version="1.0" standalone="no"?><!DOCTYPE svg PUBLIC "-//W3C//DTD SVG 1.1//EN" "http://www.w3.org/Graphics/SVG/1.1/DTD/svg11.dtd"><svg t="1564036186768" class="icon" viewBox="0 0 1024 1024" version="1.1" xmlns="http://www.w3.org/2000/svg" p-id="24915" xmlns:xlink="http://www.w3.org/1999/xlink" width="200" height="200"><defs><style type="text/css"></style></defs><path d="M781.824 480.256H260.608c-16.896 0-30.72 13.824-30.72 30.72s13.824 30.72 30.72 30.72h521.216c16.896 0 30.72-13.824 30.72-30.72s-13.824-30.72-30.72-30.72z" fill="#F56C6C" p-id="24916"></path><path d="M514.56 12.288c-270.848 0-491.52 220.672-491.52 491.52s220.672 491.52 491.52 491.52 491.52-220.672 491.52-491.52-220.672-491.52-491.52-491.52z m0 921.6c-237.056 0-430.08-193.024-430.08-430.08s193.024-430.08 430.08-430.08 430.08 193.024 430.08 430.08-193.024 430.08-430.08 430.08z" fill="#F56C6C" p-id="24917"></path></svg>