<?xml version="1.0" standalone="no"?><!DOCTYPE svg PUBLIC "-//W3C//DTD SVG 1.1//EN" "http://www.w3.org/Graphics/SVG/1.1/DTD/svg11.dtd"><svg t="1563799258447" class="icon" viewBox="0 0 1024 1024" version="1.1" xmlns="http://www.w3.org/2000/svg" p-id="2660" xmlns:xlink="http://www.w3.org/1999/xlink" width="200" height="200"><defs><style type="text/css"></style></defs><path d="M479.2 669.8l64 0 0 62.9-64 0 0-62.9Z" p-id="2661" fill="#ffffff"></path><path d="M512 320c-70.6 0-128 57.4-128 128l64 0c0-35.3 28.7-64 64-64 35.3 0 64 28.7 64 64s-28.7 64-64 64l-32 0 0 102.2 64 0L544 572c55.1-14.2 96-64.4 96-124C640 377.4 582.6 320 512 320z" p-id="2662" fill="#ffffff"></path><path d="M512 0C229.2 0 0 229.2 0 512s229.2 512 512 512 512-229.2 512-512S794.8 0 512 0zM828.8 828.8 701.5 701.5c-32.8 32.8-74 57.1-120.1 69.4l46.6 174c-37.6 10.1-76.4 15.1-116 15.1s-78.4-5.1-116-15.1l46.6-174c-46.1-12.3-87.3-36.6-120.1-69.4L195.2 828.8c0 0 0 0 0 0-41.2-41.2-73.5-89.1-96-142.4-8.1-19.1-14.8-38.6-20.1-58.4l174-46.6c-5.9-22.1-9.1-45.4-9.1-69.3 0-24 3.2-47.2 9.1-69.4L79.1 396c5.3-19.8 12-39.3 20.1-58.4 22.6-53.3 54.9-101.3 96-142.4 0 0 0 0 0 0l127.3 127.3c32.8-32.8 74-57.1 120.1-69.4L396 79.1C433.6 69.1 472.4 64 512 64s78.4 5.1 116 15.1l-46.6 174c46.1 12.3 87.3 36.6 120.1 69.4l127.3-127.3c0 0 0 0 0 0 41.2 41.2 73.5 89.1 96 142.4 8.1 19.1 14.8 38.6 20.1 58.4l-174 46.6c5.9 22.1 9.1 45.4 9.1 69.4s-3.2 47.2-9.1 69.4l174 46.6c-5.3 19.8-12 39.3-20.1 58.4C902.3 739.7 869.9 787.6 828.8 828.8 828.8 828.8 828.8 828.8 828.8 828.8z" p-id="2663" fill="#ffffff"></path></svg>