<?xml version="1.0" standalone="no"?><!DOCTYPE svg PUBLIC "-//W3C//DTD SVG 1.1//EN" "http://www.w3.org/Graphics/SVG/1.1/DTD/svg11.dtd"><svg t="1564366390057" class="icon" viewBox="0 0 1024 1024" version="1.1" xmlns="http://www.w3.org/2000/svg" p-id="30146" xmlns:xlink="http://www.w3.org/1999/xlink" width="200" height="200"><defs><style type="text/css"></style></defs><path d="M133.12 46.08h455.68v51.2H133.12zM225.28 194.56h358.4v51.2h-358.4zM225.28 348.16h537.6v51.2H225.28zM225.28 501.76h358.4v51.2h-358.4zM225.28 655.36h261.12v51.2H225.28zM629.1456 658.5856l36.1984-36.1984 238.9504 238.9504-36.2496 36.1984z" fill="#66CDAA" p-id="30147"></path><path d="M552.96 81.92l35.84-35.84L906.24 358.4l-35.84 35.84zM133.12 926.72h450.56v51.2H133.12z" fill="#66CDAA" p-id="30148"></path><path d="M855.04 358.4h51.2v199.68h-51.2zM133.12 51.2h51.2v921.6h-51.2zM773.12 588.8c-102.4 0-189.44 81.92-189.44 189.44 0 102.4 81.92 189.44 189.44 189.44s189.44-81.92 189.44-189.44c0-102.4-81.92-189.44-189.44-189.44z m0 327.68c-76.8 0-138.24-61.44-138.24-138.24s61.44-138.24 138.24-138.24 138.24 61.44 138.24 138.24c5.12 76.8-56.32 138.24-138.24 138.24z" fill="#66CDAA" p-id="30149"></path></svg>