<?xml version="1.0" standalone="no"?><!DOCTYPE svg PUBLIC "-//W3C//DTD SVG 1.1//EN" "http://www.w3.org/Graphics/SVG/1.1/DTD/svg11.dtd"><svg t="1563778762731" class="icon" viewBox="0 0 1024 1024" version="1.1" xmlns="http://www.w3.org/2000/svg" p-id="1801" xmlns:xlink="http://www.w3.org/1999/xlink" width="200" height="200"><defs><style type="text/css"></style></defs><path d="M353 145h526v144c0 8.837-7.163 16-16 16H337V161c0-8.837 7.163-16 16-16z m0 287h526v144c0 8.837-7.163 16-16 16H337V448c0-8.837 7.163-16 16-16z m0 286h526v144c0 8.837-7.163 16-16 16H337V734c0-8.837 7.163-16 16-16zM153 145h152v152a8 8 0 0 1-8 8H145V153a8 8 0 0 1 8-8z m0 287h152v152a8 8 0 0 1-8 8H145V440a8 8 0 0 1 8-8z m40 48v64h64v-64h-64z m-40 238h152v152a8 8 0 0 1-8 8H145V726a8 8 0 0 1 8-8z m40 48v64h64v-64h-64z" p-id="1802" fill="#66CDAA"></path></svg>